<svg xmlns="http://www.w3.org/2000/svg" fill="none" viewBox="0 0 570 967">
  <rect width="124" height="124" x="1" y="495" fill="#FEFEFE" stroke="#F3F0FE" stroke-width="1.2" rx="12"/>
  <path fill="#ECECEC" d="M17 511h92v92H17z"/>
  <rect width="124" height="22" x="1" y="698" fill="#1EA4CE" rx="2"/>
  <path fill="#1EA4CE" d="M1 630h51v15H1v-15Z"/>
  <path fill="#D9D9D9" d="M1 654h75v15H1z"/>
  <rect width="124" height="124" x="149" y="496" fill="#FEFEFE" stroke="#F3F0FE" stroke-width="1.2" rx="12"/>
  <path fill="#ECECEC" d="M165 512h92v92h-92z"/>
  <rect width="124" height="22" x="149" y="699" fill="#1EA4CE" rx="2"/>
  <path fill="#1EA4CE" d="M149 631h51v15h-51v-15Z"/>
  <path fill="#D9D9D9" d="M149 655h82v15h-82zM1 677h109v15H1z"/>
  <rect width="124" height="124" x="297" y="496" fill="#FEFEFE" stroke="#F3F0FE" stroke-width="1.2" rx="12"/>
  <path fill="#ECECEC" d="M313 512h92v92h-92z"/>
  <rect width="124" height="22" x="297" y="699" fill="#1EA4CE" rx="2"/>
  <path fill="#1EA4CE" d="M297 631h51v15h-51v-15Z"/>
  <path fill="#D9D9D9" d="M297 655h60v15h-60zm70 0h30v15h-30zm-70 19h92v15h-92z"/>
  <rect width="124" height="124" x="445" y="496" fill="#FEFEFE" stroke="#F3F0FE" stroke-width="1.2" rx="12"/>
  <path fill="#ECECEC" d="M461 512h92v92h-92z"/>
  <rect width="124" height="22" x="445" y="699" fill="#1EA4CE" rx="2"/>
  <path fill="#1EA4CE" d="M445 631h51v15h-51v-15Z"/>
  <path fill="#D9D9D9" d="M445 655h108v15H445z"/>
  <rect width="124" height="124" x="1" y="741" fill="#FEFEFE" stroke="#F3F0FE" stroke-width="1.2" rx="12"/>
  <path fill="#ECECEC" d="M17 757h92v92H17z"/>
  <rect width="124" height="22" x="1" y="944" fill="#1EA4CE" rx="2"/>
  <path fill="#1EA4CE" d="M1 876h51v15H1v-15Z"/>
  <path fill="#D9D9D9" d="M1 900h97v15H1z"/>
  <rect width="124" height="124" x="149" y="742" fill="#FEFEFE" stroke="#F3F0FE" stroke-width="1.2" rx="12"/>
  <path fill="#ECECEC" d="M165 758h92v92h-92z"/>
  <rect width="124" height="22" x="149" y="945" fill="#1EA4CE" rx="2"/>
  <path fill="#1EA4CE" d="M149 877h51v15h-51v-15Z"/>
  <path fill="#D9D9D9" d="M149 901h82v15h-82zm0 24h109v15H149z"/>
  <rect width="124" height="124" x="297" y="742" fill="#FEFEFE" stroke="#F3F0FE" stroke-width="1.2" rx="12"/>
  <path fill="#ECECEC" d="M313 758h92v92h-92z"/>
  <rect width="124" height="22" x="297" y="945" fill="#1EA4CE" rx="2"/>
  <path fill="#1EA4CE" d="M297 877h51v15h-51v-15Z"/>
  <path fill="#D9D9D9" d="M297 901h51v15h-51z"/>
  <rect width="124" height="124" x="445" y="742" fill="#FEFEFE" stroke="#F3F0FE" stroke-width="1.2" rx="12"/>
  <path fill="#ECECEC" d="M461 758h92v92h-92z"/>
  <rect width="124" height="22" x="445" y="945" fill="#1EA4CE" rx="2"/>
  <path fill="#1EA4CE" d="M445 877h51v15h-51v-15Z"/>
  <path fill="#D9D9D9" d="M445 901h84v15h-84z"/>
  <rect width="124" height="124" x="1" y="248" fill="#FEFEFE" stroke="#F3F0FE" stroke-width="1.2" rx="12"/>
  <path fill="#ECECEC" d="M17 264h92v92H17z"/>
  <rect width="124" height="22" x="1" y="451" fill="#1EA4CE" rx="2"/>
  <path fill="#1EA4CE" d="M1 383h51v15H1v-15Z"/>
  <path fill="#D9D9D9" d="M1 407h75v15H1z"/>
  <rect width="124" height="124" x="149" y="249" fill="#FEFEFE" stroke="#F3F0FE" stroke-width="1.2" rx="12"/>
  <path fill="#ECECEC" d="M165 265h92v92h-92z"/>
  <rect width="124" height="22" x="149" y="452" fill="#1EA4CE" rx="2"/>
  <path fill="#1EA4CE" d="M149 384h51v15h-51v-15Z"/>
  <path fill="#D9D9D9" d="M149 408h109v15H149z"/>
  <rect width="124" height="124" x="297" y="249" fill="#FEFEFE" stroke="#F3F0FE" stroke-width="1.2" rx="12"/>
  <path fill="#ECECEC" d="M313 265h92v92h-92z"/>
  <rect width="124" height="22" x="297" y="452" fill="#1EA4CE" rx="2"/>
  <path fill="#1EA4CE" d="M297 384h51v15h-51v-15Z"/>
  <path fill="#D9D9D9" d="M297 408h92v15h-92zm0 19h78v15h-78z"/>
  <rect width="124" height="124" x="445" y="249" fill="#FEFEFE" stroke="#F3F0FE" stroke-width="1.2" rx="12"/>
  <path fill="#ECECEC" d="M461 265h92v92h-92z"/>
  <rect width="124" height="22" x="445" y="452" fill="#1EA4CE" rx="2"/>
  <path fill="#1EA4CE" d="M445 384h51v15h-51v-15Z"/>
  <path fill="#D9D9D9" d="M445 408h66v15h-66zm0 19h90v15h-90z"/>
  <rect width="124" height="124" x="1" y="1" fill="#FEFEFE" stroke="#F3F0FE" stroke-width="1.2" rx="12"/>
  <path fill="#ECECEC" d="M17 17h92v92H17z"/>
  <rect width="124" height="22" x="1" y="204" fill="#1EA4CE" rx="2"/>
  <path fill="#1EA4CE" d="M1 136h51v15H1v-15Z"/>
  <path fill="#D9D9D9" d="M1 160h109v15H1zm0 19h48v15H1z"/>
  <rect width="124" height="124" x="149" y="2" fill="#FEFEFE" stroke="#F3F0FE" stroke-width="1.2" rx="12"/>
  <path fill="#ECECEC" d="M165 18h92v92h-92z"/>
  <rect width="124" height="22" x="149" y="205" fill="#1EA4CE" rx="2"/>
  <path fill="#1EA4CE" d="M149 137h51v15h-51v-15Z"/>
  <path fill="#D9D9D9" d="M149 161h91v15h-91zm0 19h62v15h-62z"/>
  <rect width="124" height="124" x="297" y="2" fill="#FEFEFE" stroke="#F3F0FE" stroke-width="1.2" rx="12"/>
  <path fill="#ECECEC" d="M313 18h92v92h-92z"/>
  <rect width="124" height="22" x="297" y="205" fill="#1EA4CE" rx="2"/>
  <path fill="#1EA4CE" d="M297 137h48v15h-48v-15Z"/>
  <path fill="#D9D9D9" d="M297 161h100v15H297z"/>
  <rect width="124" height="124" x="445" y="2" fill="#FEFEFE" stroke="#F3F0FE" stroke-width="1.2" rx="12"/>
  <path fill="#ECECEC" d="M461 18h92v92h-92z"/>
  <rect width="124" height="22" x="445" y="205" fill="#1EA4CE" rx="2"/>
  <path fill="#1EA4CE" d="M445 137h51v15h-51v-15Z"/>
  <path fill="#D9D9D9" d="M445 161h90v15h-90zm0 19h66v15h-66z"/>
</svg>
